
<!-- Generator: visioncortex VTracer 0.6.4 -->
<svg version="1.1" xmlns="http://www.w3.org/2000/svg" viewBox="0 0 512 512" preserveAspectRatio="xMidYMid meet">
<path d="M0 0 C1.232 0.424 2.465 0.848 3.734 1.285 C30.349 10.948 54.253 29.766 69 54 C69.695 55.119 70.39 56.238 71.105 57.391 C87.78 84.923 93.733 119.357 86.548 150.84 C82.539 166.648 75.235 185.559 62.411 196.335 C60.493 198.598 60.548 200.152 60.41 203.094 C60.321 204.625 60.321 204.625 60.229 206.188 C60.174 207.281 60.119 208.374 60.062 209.5 C58.258 236.723 50.843 263.356 32 284 C30.855 284.993 29.69 285.964 28.51 286.915 C22.015 292.283 17.369 296.791 16.515 305.471 C16.344 309.954 16.447 314.394 16.625 318.875 C16.647 320.738 16.663 322.602 16.672 324.465 C16.708 328.981 16.829 333.487 17 338 C18.273 338.125 19.546 338.25 20.857 338.378 C22.561 338.55 24.265 338.722 25.969 338.895 C26.804 338.976 27.639 339.057 28.499 339.141 C62.099 342.574 92.231 358.429 116 382 C116.936 382.923 117.872 383.846 118.836 384.797 C130.909 397.32 139.866 412.208 147 428 C147.531 429.14 148.062 430.279 148.609 431.453 C155.724 447.811 159.687 466.232 161 484 C161.082 485.034 161.165 486.068 161.25 487.133 C161.518 493.28 160.689 497.97 157 503 C152.399 507.272 149.833 508.125 143.636 508.134 C142.64 508.138 142.64 508.138 141.624 508.141 C139.379 508.148 137.133 508.148 134.887 508.147 C133.269 508.15 131.651 508.154 130.033 508.158 C125.571 508.168 121.108 508.172 116.645 508.175 C111.839 508.179 107.032 508.188 102.225 508.197 C90.609 508.217 78.992 508.227 67.375 508.236 C61.909 508.24 56.442 508.245 50.975 508.251 C32.809 508.268 14.642 508.282 -3.524 508.289 C-8.241 508.291 -12.957 508.293 -17.674 508.295 C-18.846 508.296 -20.019 508.296 -21.227 508.297 C-40.224 508.305 -59.221 508.33 -78.218 508.363 C-97.709 508.396 -117.201 508.414 -136.693 508.417 C-147.642 508.419 -158.59 508.428 -169.539 508.453 C-178.862 508.475 -188.186 508.483 -197.509 508.474 C-202.268 508.469 -207.026 508.471 -211.784 508.49 C-216.14 508.508 -220.495 508.507 -224.851 508.491 C-226.427 508.489 -228.003 508.493 -229.579 508.505 C-244.245 508.608 -244.245 508.608 -250 504 C-255 498.474 -255.181 492.247 -254.875 485.073 C-254.606 481.913 -254.262 478.773 -253.875 475.625 C-253.737 474.487 -253.6 473.348 -253.458 472.176 C-249.291 439.927 -237.031 409.91 -216 385 C-215.301 384.166 -214.603 383.332 -213.883 382.473 C-192.17 357.399 -160.171 342.231 -127.449 338.887 C-126.63 338.8 -125.812 338.712 -124.968 338.622 C-122.979 338.411 -120.99 338.205 -119 338 C-116.595 314.1 -116.595 314.1 -123.312 292.238 C-126.548 288.862 -130.215 286.126 -134.055 283.471 C-148.728 272.374 -157.667 245.417 -160.12 227.84 C-160.225 227.068 -160.33 226.296 -160.438 225.5 C-161.345 219.074 -162.685 215.044 -166.84 209.918 C-188.629 180.485 -196.505 136.816 -192.695 101.147 C-190.458 86.34 -184.748 70.748 -174 60 C-174.603 59.986 -175.207 59.972 -175.828 59.957 C-179.951 59.711 -182.313 59.569 -185.562 56.875 C-187.462 53.075 -187.785 51.209 -187 47 C-184.968 44.02 -182.559 41.532 -180 39 C-179.216 38.175 -178.433 37.35 -177.625 36.5 C-176.759 35.675 -175.892 34.85 -175 34 C-174.389 33.406 -173.778 32.811 -173.148 32.199 C-156.079 16.216 -134.379 9.028 -111.266 9.699 C-103.637 10.112 -95.687 11.438 -88.445 13.852 C-84.729 14.077 -82.499 12.033 -79.625 9.938 C-56.895 -5.576 -25.951 -9.174 0 0 Z " fill="#010101" transform="translate(303,4)"/>
<path d="M0 0 C1.032 0.393 1.032 0.393 2.085 0.795 C31.787 12.324 53.153 35.086 66 64 C75.821 88.037 77.123 117.945 67.163 142.024 C66.455 143.688 65.729 145.345 65 147 C64.67 147 64.34 147 64 147 C63.955 146.28 63.91 145.561 63.864 144.82 C61.995 112.993 61.995 112.993 46 86 C41.468 82.065 37.811 79.265 31.688 78.688 C27.298 79.059 25.352 80.193 22 83 C20.409 85.682 19.701 88.068 19.188 91.125 C15.957 106.1 4.591 117.672 -7 127 C-9.324 128.277 -9.324 128.277 -11 129 C-11.473 127.863 -11.946 126.726 -12.434 125.555 C-20.475 106.615 -30.785 87.429 -50.359 78.461 C-63.991 73.133 -76.577 74.327 -89.988 79.813 C-109.547 88.662 -121.133 102.702 -130 122 C-133.163 120.548 -135.764 118.771 -138.5 116.625 C-139.629 115.747 -139.629 115.747 -140.781 114.852 C-143 113 -143 113 -145.066 110.809 C-146.989 108.675 -146.989 108.675 -150.438 108.438 C-154.04 108.755 -154.04 108.755 -156.75 110.812 C-162.893 119.515 -162.517 130.425 -162.688 140.688 C-162.721 142.083 -162.755 143.478 -162.791 144.873 C-162.873 148.249 -162.942 151.624 -163 155 C-171.264 142.603 -173.509 121.639 -174 107 C-174.031 106.328 -174.062 105.656 -174.094 104.964 C-174.907 85.882 -171.535 68.287 -159.039 53.094 C-152.999 46.892 -145.741 42.546 -137.898 39.008 C-135.831 38.146 -135.831 38.146 -135 36 C-134.866 32.327 -134.833 29.501 -136 26 C-138.118 24.882 -138.118 24.882 -141 24 C-141.77 23.74 -142.539 23.479 -143.332 23.211 C-145.551 22.463 -147.774 21.727 -150 21 C-142.353 12.17 -127.588 9.699 -116.566 8.684 C-107.529 8.366 -95.972 9.472 -87.977 14.195 C-84.734 15.515 -82.344 14.815 -79 14 C-75.822 12.178 -75.822 12.178 -72.812 9.812 C-50.899 -6.09 -25.27 -9.851 0 0 Z " fill="#81592B" transform="translate(301,22)"/>
<path d="M0 0 C6.082 0 11.175 0.146 17 1.312 C17.971 1.489 17.971 1.489 18.961 1.67 C24.139 2.668 29.035 4.239 34 6 C34.712 6.248 35.424 6.496 36.157 6.752 C51.445 12.171 64.713 19.321 77 30 C77.83 30.709 78.66 31.418 79.516 32.148 C103.004 52.683 117.292 80.03 123.875 110.25 C124.091 111.219 124.306 112.189 124.528 113.188 C126.084 120.823 126 126.888 126 135 C84.42 135 42.84 135 0 135 C0 90.45 0 45.9 0 0 Z " fill="#5F7C8A" transform="translate(320,360)"/>
<path d="M0 0 C0 44.55 0 89.1 0 135 C-38.94 135 -77.88 135 -118 135 C-118 120.837 -118 120.837 -116.875 114.062 C-116.744 113.265 -116.613 112.468 -116.477 111.647 C-110.318 76.628 -93.515 42.931 -64.188 21.75 C-45.169 8.476 -23.371 0 0 0 Z " fill="#5F7C8A" transform="translate(184,360)"/>
<path d="M0 0 C1.887 -0.004 1.887 -0.004 3.812 -0.008 C7 0.125 7 0.125 9 1.125 C9.492 3.461 9.492 3.461 9.875 6.5 C12.059 20.479 17.61 31.216 28.875 40.062 C41.121 48.717 53.375 50.173 68 49.125 C71.8 48.421 75.377 47.466 79 46.125 C73 62.966 54.507 76.618 38.941 84.129 C16.054 94.714 -7.007 95.889 -31 88.125 C-40.924 84.363 -49.769 78.791 -58 72.125 C-59.149 71.222 -59.149 71.222 -60.32 70.301 C-67.646 64.213 -75.097 55.912 -79 47.125 C-77.886 47.455 -76.773 47.785 -75.625 48.125 C-58.944 51.832 -43.514 48.693 -29 40.125 C-27.647 38.811 -26.308 37.484 -25 36.125 C-24.34 36.125 -23.68 36.125 -23 36.125 C-22.729 35.551 -22.459 34.978 -22.18 34.387 C-20.981 32.088 -19.615 30.057 -18.125 27.938 C-12.848 20.022 -10.569 13.246 -9.492 3.75 C-9.33 2.884 -9.167 2.018 -9 1.125 C-6.028 -0.361 -3.304 -0.007 0 0 Z " fill="#FDDEB0" transform="translate(252,215.875)"/>
<path d="M0 0 C16.65 9.607 25.439 29.217 31.211 46.777 C32.79 50.021 34.535 51.456 37.512 53.449 C38.502 53.779 39.492 54.109 40.512 54.449 C40.512 55.109 40.512 55.769 40.512 56.449 C38.938 57.781 38.938 57.781 36.824 59.262 C27.639 65.981 21.978 74.029 17.512 84.449 C10.252 84.449 2.992 84.449 -4.488 84.449 C-5.602 82.18 -6.716 79.912 -7.863 77.574 C-14.852 64.202 -24.809 56.377 -39.078 51.578 C-52.071 48.443 -65.885 49.7 -77.602 56.168 C-81.714 58.739 -85.627 61.516 -89.488 64.449 C-90.645 58.967 -90.602 53.646 -90.551 48.074 C-90.546 47.147 -90.542 46.221 -90.537 45.266 C-90.525 42.993 -90.509 40.721 -90.488 38.449 C-89.094 39.315 -89.094 39.315 -87.672 40.199 C-86.424 40.95 -85.175 41.7 -83.926 42.449 C-83.012 43.022 -83.012 43.022 -82.08 43.605 C-77.733 46.182 -74.662 46.943 -69.488 46.449 C-66.218 45.487 -64.21 44.673 -62.438 41.668 C-61.388 39.285 -60.44 36.873 -59.488 34.449 C-55.71 25.745 -51.24 19.12 -44.488 12.449 C-43.862 11.801 -43.235 11.152 -42.59 10.484 C-31.626 -0.087 -14.438 -6.46 0 0 Z " fill="#FCDCAF" transform="translate(245.48828125,115.55078125)"/>
<path d="M0 0 C9.457 4.521 15.532 12.007 19.875 21.312 C21.898 30.692 20.973 41.35 16.273 49.824 C11.156 57.008 4.279 63.336 -4.438 65.5 C-16.694 66.617 -26.629 65.56 -36.359 57.531 C-42.894 51.144 -46.642 43.926 -46.868 34.811 C-46.892 26.255 -46.611 19.688 -41.438 12.5 C-40.86 11.593 -40.283 10.685 -39.688 9.75 C-29.133 -0.804 -14.319 -5.05 0 0 Z " fill="#00BAD2" transform="translate(324.4375,183.5)"/>
<path d="M0 0 C8.218 5.1 14.254 12.216 16.688 21.668 C18.045 33.789 16.272 44.113 8.527 53.848 C0.899 61.395 -8.215 64.153 -18.648 64.172 C-27.604 63.926 -34.627 60.389 -41.25 54.418 C-46.146 49.019 -49.872 42.001 -50.312 34.668 C-50.374 33.784 -50.436 32.899 -50.5 31.988 C-50.907 22.002 -48.67 15.149 -42.312 7.418 C-30.749 -4.502 -15.008 -7.28 0 0 Z " fill="#00BAD2" transform="translate(209.3125,185.33203125)"/>
<path d="M0 0 C2.475 0.99 2.475 0.99 5 2 C7.619 3.015 10.247 4.008 12.875 5 C13.898 5.391 13.898 5.391 14.941 5.789 C40.025 15.249 68.414 14.209 92.906 3.367 C95.863 2.061 98.933 1.022 102 0 C102 10.23 102 20.46 102 31 C89.538 33.008 89.538 33.008 83.848 33.91 C79.666 34.574 75.486 35.247 71.309 35.934 C58.892 37.941 47.89 38.738 35.439 36.356 C23.702 34.12 11.828 32.657 0 31 C0 20.77 0 10.54 0 0 Z " fill="#FBDDAF" transform="translate(201,313)"/>
<path d="M0 0 C0.33 0 0.66 0 1 0 C1.2 4.07 1.344 8.139 1.439 12.213 C1.479 13.594 1.534 14.974 1.604 16.353 C2.062 25.637 1.21 31.427 -4.84 38.645 C-5.553 39.422 -6.266 40.199 -7 41 C-8.143 42.342 -8.143 42.342 -9.309 43.71 C-19.663 55.812 -32.684 66.809 -48 72 C-63.704 71.431 -79.123 56.467 -89.551 45.75 C-93.109 41.755 -96.12 37.5 -99 33 C-99.66 32.01 -100.32 31.02 -101 30 C-101.227 26.997 -101.227 26.997 -101.195 23.363 C-101.189 22.065 -101.182 20.766 -101.176 19.428 C-101.159 18.056 -101.142 16.684 -101.125 15.312 C-101.115 13.929 -101.106 12.546 -101.098 11.162 C-101.074 7.775 -101.041 4.387 -101 1 C-97.985 4.684 -95.636 8.305 -93.375 12.5 C-89.257 19.914 -84.365 26.449 -79 33 C-78.366 33.801 -77.732 34.601 -77.078 35.426 C-71.939 41.609 -61.436 53.2 -53.082 54.238 C-43.417 54.554 -38.331 49.726 -31.539 43.406 C-30.701 42.612 -29.863 41.818 -29 41 C-28.245 40.309 -27.489 39.618 -26.711 38.906 C-15.202 28.007 -7.041 14.083 0 0 Z " fill="#9A9A9A" transform="translate(302,422)"/>
<path d="M0 0 C17.741 2.805 34.678 13.421 48 25 C48.83 25.709 49.66 26.418 50.516 27.148 C76.944 50.253 94.057 84.302 97.21 119.338 C97.38 122.933 97.225 126.401 97 130 C91.39 130 85.78 130 80 130 C79.902 128.681 79.804 127.363 79.703 126.004 C77.755 101.824 71.513 80.366 60 59 C59.446 57.952 58.891 56.904 58.32 55.824 C45.087 31.922 24.369 13.041 0 1 C0 0.67 0 0.34 0 0 Z " fill="#36464E" transform="translate(349,365)"/>
<path d="M0 0 C24.409 3.923 46.695 21.436 61 41 C78.378 66.693 86.334 95.911 81.544 126.953 C79.917 134.654 77.167 141.812 74 149 C73.67 149 73.34 149 73 149 C72.955 148.28 72.91 147.561 72.864 146.82 C71.839 125.434 71.839 125.434 65.875 105.062 C64.181 101.101 63.706 97.738 63.5 93.438 C62.01 64.111 45.837 36.972 24.574 17.37 C17.162 10.919 8.768 5.407 0 1 C0 0.67 0 0.34 0 0 Z " fill="#604320" transform="translate(292,20)"/>
<path d="M0 0 C0.454 0.424 0.908 0.849 1.375 1.286 C1.985 1.836 2.595 2.386 3.223 2.953 C3.821 3.501 4.419 4.049 5.035 4.614 C7.943 6.665 10.234 6.822 13.728 6.612 C16.457 5.877 18.08 4.706 20.285 2.953 C20.986 2.403 21.688 1.853 22.41 1.286 C22.935 0.862 23.46 0.437 24 0 C24.837 3.896 25.673 7.792 26.509 11.688 C26.793 13.012 27.077 14.336 27.361 15.66 C27.771 17.569 28.18 19.478 28.59 21.387 C28.959 23.107 28.959 23.107 29.336 24.862 C31.672 35.899 31.672 35.899 31 40 C26.671 46.209 19.982 53.789 13 57 C6.771 55.572 2.459 50.277 -2 46 C-2.888 45.238 -2.888 45.238 -3.793 44.461 C-5.88 42.462 -6.978 40.733 -7.066 37.823 C-6.24 29.7 -4.654 21.788 -2.938 13.812 C-2.652 12.466 -2.368 11.119 -2.084 9.771 C-1.395 6.513 -0.7 3.256 0 0 Z " fill="#EF4134" transform="translate(240,402)"/>
<path d="M0 0 C8.306 7.12 11.663 17.573 12.799 28.202 C13.214 33.981 13.101 39.773 13.062 45.562 C13.058 46.857 13.053 48.152 13.049 49.486 C13.037 52.658 13.021 55.829 13 59 C12.478 58.598 11.957 58.196 11.419 57.782 C-3.714 46.252 -17.441 44.509 -36 45 C-33.138 42.025 -30.128 39.474 -26.875 36.938 C-14.828 27.104 -4.717 15.035 0 0 Z " fill="#DBC099" transform="translate(335,121)"/>
<path d="M0 0 C2.475 0.99 2.475 0.99 5 2 C7.619 3.015 10.247 4.008 12.875 5 C13.898 5.391 13.898 5.391 14.941 5.789 C40.025 15.249 68.414 14.209 92.906 3.367 C95.863 2.061 98.933 1.022 102 0 C102 10.23 102 20.46 102 31 C101.67 31 101.34 31 101 31 C101 24.4 101 17.8 101 11 C98.525 12.238 96.05 13.475 93.5 14.75 C85.192 18.763 77.046 21.207 68 23 C67.06 23.195 66.121 23.389 65.152 23.59 C57.513 24.584 49.688 24.141 42 24 C41.02 23.983 40.041 23.966 39.031 23.949 C25.613 23.145 12.854 16.813 1 11 C1 17.6 1 24.2 1 31 C0.67 31 0.34 31 0 31 C0 20.77 0 10.54 0 0 Z " fill="#DBC099" transform="translate(201,313)"/>
<path d="M0 0 C1.902 0.375 1.902 0.375 4.34 1.875 C6.512 5.351 6.477 8.309 6.902 12.375 C7.939 12.75 8.975 13.125 10.043 13.512 C11.413 14.028 12.783 14.545 14.152 15.062 C14.834 15.307 15.516 15.551 16.219 15.803 C20.672 17.511 23.364 19.136 25.902 23.375 C26.606 26.709 26.192 29.992 25.902 33.375 C25.761 35.15 25.761 35.15 25.617 36.961 C24.582 46.547 24.582 46.547 21.539 50.254 C18.902 52.375 18.902 52.375 15.402 53 C10.915 52.199 9.648 50.981 6.902 47.375 C6.697 44.343 6.723 42.016 7.09 39.062 C7.16 38.322 7.23 37.581 7.303 36.818 C7.479 35.001 7.687 33.188 7.902 31.375 C7.322 31.193 6.742 31.011 6.145 30.824 C-5.86 26.961 -5.86 26.961 -8.734 23.277 C-10.465 19.593 -10.575 16.301 -10.535 12.312 C-10.555 11.605 -10.575 10.898 -10.596 10.17 C-10.592 6.732 -10.351 4.727 -8.32 1.91 C-5.329 -0.156 -3.536 -0.211 0 0 Z " fill="#F44537" transform="translate(224.09765625,125.625)"/>
<path d="M0 0 C7.374 -0.641 13.449 1.456 19.465 5.766 C26.491 11.705 32.355 18.94 33.219 28.395 C33.553 38.127 32.083 47.652 25.66 55.258 C20.132 61.06 13.948 66.387 5.648 67.242 C3.764 67.249 1.88 67.137 0 67 C1.299 65.546 1.299 65.546 2.625 64.062 C12.556 52.394 16.177 42.34 15.203 26.996 C14.136 16.487 7.522 7.123 0 0 Z " fill="#00818D" transform="translate(312,182)"/>
<path d="M0 0 C10.264 0.497 18.235 4.084 25.238 11.727 C32.216 20.731 33.207 29.999 32 41 C30.177 48.73 26.063 56.065 19.566 60.758 C12.973 64.814 7.868 67.309 0 67 C0.375 66.588 0.75 66.175 1.137 65.75 C9.44 56.38 14.599 47.352 14.375 34.625 C14.364 33.787 14.353 32.949 14.342 32.086 C13.993 18.537 8.552 10.263 0 0 Z " fill="#00828E" transform="translate(194,182)"/>
<path d="M0 0 C2.259 19.865 -7.671 39.929 -17 57 C-17.99 57.495 -17.99 57.495 -19 58 C-19.884 53.946 -20.757 49.889 -21.618 45.83 C-21.913 44.45 -22.211 43.07 -22.512 41.692 C-22.945 39.708 -23.366 37.721 -23.785 35.734 C-24.042 34.54 -24.298 33.346 -24.563 32.116 C-24.967 29.237 -25.09 27.654 -24 25 C-23.319 24.278 -22.639 23.556 -21.938 22.812 C-19.575 19.383 -19.365 17.244 -19.535 13.156 C-20.283 9.689 -22.257 8.09 -25 6 C-25.66 5.67 -26.32 5.34 -27 5 C-27 4.34 -27 3.68 -27 3 C-23.063 2.497 -19.125 1.998 -15.188 1.5 C-14.068 1.357 -12.948 1.214 -11.795 1.066 C-10.722 0.931 -9.649 0.796 -8.543 0.656 C-7.553 0.531 -6.563 0.405 -5.544 0.275 C-3 0 -3 0 0 0 Z " fill="#EEEEEE" transform="translate(303,361)"/>
<path d="M0 0 C2.833 0.312 5.667 0.624 8.5 0.938 C9.291 1.025 10.083 1.112 10.898 1.201 C12.485 1.377 14.071 1.556 15.656 1.738 C17.217 1.912 18.78 2.073 20.344 2.219 C22.237 2.412 24.121 2.697 26 3 C26.33 3.66 26.66 4.32 27 5 C25.577 5.866 25.577 5.866 24.125 6.75 C20.507 9.214 20.507 9.214 19 13 C19.062 17.108 19.062 17.108 20 21 C20.887 21.763 21.774 22.526 22.688 23.312 C25 26 25 26 24.863 28.258 C24.67 29.142 24.476 30.026 24.277 30.938 C23.972 32.409 23.972 32.409 23.66 33.909 C23.442 34.929 23.225 35.949 23 37 C22.636 38.961 22.279 40.923 21.93 42.887 C20.953 48.258 19.977 53.629 19 59 C8.489 49.404 0.417 24.345 -0.43 10.344 C-0.499 6.877 -0.334 3.453 0 0 Z " fill="#EFEFEF" transform="translate(201,361)"/>
<path d="M0 0 C1.887 -0.004 1.887 -0.004 3.812 -0.008 C7 0.125 7 0.125 9 1.125 C9.492 3.461 9.492 3.461 9.875 6.5 C11.882 19.345 16.779 30.785 27.5 38.75 C28.17 39.196 28.841 39.642 29.531 40.102 C30.016 40.439 30.501 40.777 31 41.125 C31 41.455 31 41.785 31 42.125 C18.678 41.03 8.983 35.771 0.688 26.688 C-4.719 19.982 -9.852 9.928 -9 1.125 C-6.028 -0.361 -3.304 -0.007 0 0 Z " fill="#DBC199" transform="translate(252,215.875)"/>
<path d="M0 0 C0 7.599 -8.984 15.359 -14.125 20.625 C-25.036 31.438 -40.552 41.628 -56 44 C-53.317 41.176 -50.623 38.955 -47.375 36.812 C-35.413 28.563 -25.681 18.307 -18 6 C-19.98 5.67 -21.96 5.34 -24 5 C-24 4.67 -24 4.34 -24 4 C-22.658 3.944 -22.658 3.944 -21.289 3.887 C-13.774 3.478 -7.078 2.593 0 0 Z " fill="#DAC098" transform="translate(330,262)"/>
<path d="M0 0 C1.999 9.423 2.219 18.427 2 28 C-4.51 27.106 -4.51 27.106 -7.434 26.471 C-9.978 26.004 -12.28 25.886 -14.863 25.902 C-15.75 25.906 -16.636 25.909 -17.549 25.912 C-18.917 25.925 -18.917 25.925 -20.312 25.938 C-21.71 25.944 -21.71 25.944 -23.135 25.951 C-25.423 25.963 -27.712 25.979 -30 26 C-27.138 23.025 -24.128 20.474 -20.875 17.938 C-15.706 13.766 -11.438 9.299 -7.094 4.285 C-3.168 0 -3.168 0 0 0 Z " fill="#F9DBAE" transform="translate(329,140)"/>
<path d="M0 0 C3.208 2.138 6.345 4.321 9.438 6.625 C7.96 10.077 6 12.275 3.312 14.875 C2.588 15.581 1.864 16.288 1.117 17.016 C0.563 17.547 0.009 18.078 -0.562 18.625 C-4.015 17.148 -6.212 15.187 -8.812 12.5 C-9.519 11.776 -10.225 11.051 -10.953 10.305 C-11.484 9.75 -12.015 9.196 -12.562 8.625 C-10.478 3.645 -5.675 -0.83 0 0 Z " fill="#C41D1D" transform="translate(253.5625,370.375)"/>
<path d="M0 0 C0 4.95 0 9.9 0 15 C-5.61 15 -11.22 15 -17 15 C-13.977 11.977 -11.092 9.138 -7.875 6.375 C-5.957 4.726 -4.093 3.094 -2.32 1.289 C-1 0 -1 0 0 0 Z " fill="#4F575B" transform="translate(303,480)"/>
<path d="M0 0 C13.714 11.714 13.714 11.714 17 15 C11.39 15 5.78 15 0 15 C0 10.05 0 5.1 0 0 Z " fill="#50585C" transform="translate(201,480)"/>
<path d="M0 0 C-2.64 1.98 -5.28 3.96 -8 6 C-8 4.02 -8 2.04 -8 0 C-4.635 -1.082 -3.702 -0.925 0 0 Z " fill="#D6BB93" transform="translate(164,174)"/>
</svg>